<svg xmlns="http://www.w3.org/2000/svg" width="64" height="64" viewBox="0 0 64 64" fill="none">
  <!-- Colorful gradient background -->
  <rect width="64" height="64" rx="12" fill="url(#paint0_linear)" />

  <!-- C letter using path -->
  <path d="M22.5 42C19.5 42 17 41 15 39C13 37 12 34.3333 12 31C12 27.6667 13 25 15 23C17 21 19.5 20 22.5 20C24.5 20 26.25 20.5 27.75 21.5C29.25 22.5 30.3333 23.8333 31 25.5L26 27.5C25.6667 26.5 25.0833 25.75 24.25 25.25C23.4167 24.75 22.5 24.5 21.5 24.5C19.8333 24.5 18.5 25.0833 17.5 26.25C16.5 27.4167 16 29 16 31C16 33 16.5 34.5833 17.5 35.75C18.5 36.9167 19.8333 37.5 21.5 37.5C22.5 37.5 23.4167 37.25 24.25 36.75C25.0833 36.25 25.6667 35.5 26 34.5L31 36.5C30.3333 38.1667 29.25 39.5 27.75 40.5C26.25 41.5 24.5 42 22.5 42Z" fill="white"/>

  <!-- P letter using path -->
  <path d="M36 42V20H46C48 20 49.5833 20.5833 50.75 21.75C51.9167 22.9167 52.5 24.3333 52.5 26C52.5 27.6667 51.9167 29.0833 50.75 30.25C49.5833 31.4167 48 32 46 32H40V42H36ZM40 28H45C45.8333 28 46.5 27.75 47 27.25C47.5 26.75 47.75 26.0833 47.75 25.25C47.75 24.4167 47.5 23.75 47 23.25C46.5 22.75 45.8333 22.5 45 22.5H40V28Z" fill="white"/>

  <defs>
    <!-- Vibrant gradient background -->
    <linearGradient id="paint0_linear" x1="0" y1="0" x2="64" y2="64" gradientUnits="userSpaceOnUse">
      <stop stop-color="#0EA5E9" />
      <stop offset="0.33" stop-color="#8B5CF6" />
      <stop offset="0.66" stop-color="#EC4899" />
      <stop offset="1" stop-color="#F59E0B" />
    </linearGradient>
  </defs>
</svg>
