
<svg width="32" height="32" viewBox="0 0 32 32" fill="none" xmlns="http://www.w3.org/2000/svg">
  <rect width="32" height="32" rx="6" fill="url(#gradient)"/>
  
  <!-- City skyline -->
  <rect x="4" y="20" width="3" height="8" fill="white" opacity="0.9"/>
  <rect x="8" y="16" width="3" height="12" fill="white" opacity="0.8"/>
  <rect x="12" y="18" width="3" height="10" fill="white" opacity="0.9"/>
  <rect x="16" y="14" width="3" height="14" fill="white" opacity="0.7"/>
  <rect x="20" y="17" width="3" height="11" fill="white" opacity="0.8"/>
  <rect x="24" y="19" width="3" height="9" fill="white" opacity="0.9"/>
  
  <!-- Pulse wave -->
  <path d="M2 12 L6 12 L8 8 L10 16 L12 4 L14 20 L16 10 L18 14 L20 6 L22 18 L24 12 L26 9 L28 13 L30 11" 
        stroke="white" 
        stroke-width="2" 
        fill="none" 
        opacity="0.9"/>
  
  <!-- Small dots for city lights -->
  <circle cx="5.5" cy="22" r="0.5" fill="#FFD700"/>
  <circle cx="9.5" cy="18" r="0.5" fill="#FFD700"/>
  <circle cx="13.5" cy="20" r="0.5" fill="#FFD700"/>
  <circle cx="17.5" cy="16" r="0.5" fill="#FFD700"/>
  <circle cx="21.5" cy="19" r="0.5" fill="#FFD700"/>
  <circle cx="25.5" cy="21" r="0.5" fill="#FFD700"/>
  
  <defs>
    <linearGradient id="gradient" x1="0%" y1="0%" x2="100%" y2="100%">
      <stop offset="0%" style="stop-color:#3B82F6;stop-opacity:1" />
      <stop offset="50%" style="stop-color:#8B5CF6;stop-opacity:1" />
      <stop offset="100%" style="stop-color:#10B981;stop-opacity:1" />
    </linearGradient>
  </defs>
</svg>
