<svg xmlns="http://www.w3.org/2000/svg" width="64" height="64" viewBox="0 0 64 64" fill="none">
  <rect width="64" height="64" rx="12" fill="url(#paint0_linear)" />
  <path d="M16 20C16 17.7909 17.7909 16 20 16H44C46.2091 16 48 17.7909 48 20V44C48 46.2091 46.2091 48 44 48H20C17.7909 48 16 46.2091 16 44V20Z" fill="white" />
  <path d="M22 24H30C31.1046 24 32 24.8954 32 26V34C32 35.1046 31.1046 36 30 36H22C20.8954 36 20 35.1046 20 34V26C20 24.8954 20.8954 24 22 24Z" fill="#0EA5E9" />
  <path d="M34 24H42C43.1046 24 44 24.8954 44 26V34C44 35.1046 43.1046 36 42 36H34C32.8954 36 32 35.1046 32 34V26C32 24.8954 32.8954 24 34 24Z" fill="#F59E0B" />
  <path d="M22 38H30C31.1046 38 32 38.8954 32 40V42C32 43.1046 31.1046 44 30 44H22C20.8954 44 20 43.1046 20 42V40C20 38.8954 20.8954 38 22 38Z" fill="#10B981" />
  <path d="M34 38H42C43.1046 38 44 38.8954 44 40V42C44 43.1046 43.1046 44 42 44H34C32.8954 44 32 43.1046 32 42V40C32 38.8954 32.8954 38 34 38Z" fill="#EC4899" />
  <defs>
    <linearGradient id="paint0_linear" x1="0" y1="0" x2="64" y2="64" gradientUnits="userSpaceOnUse">
      <stop stop-color="#0EA5E9" />
      <stop offset="0.5" stop-color="#8B5CF6" />
      <stop offset="1" stop-color="#EC4899" />
    </linearGradient>
  </defs>
</svg>
