<?xml version="1.0" encoding="UTF-8"?>
<svg xmlns="http://www.w3.org/2000/svg" width="64" height="64" viewBox="0 0 64 64" fill="none">
  <!-- Gradient background -->
  <rect width="64" height="64" rx="12" fill="url(#paint0_linear)" />

  <!-- White circle background for text -->
  <circle cx="32" cy="32" r="24" fill="white" />

  <!-- "C" letter -->
  <path d="M24.5 42C22.3 42 20.3833 41.5 18.75 40.5C17.1167 39.4833 15.8667 38.0833 15 36.3C14.1333 34.5 13.7 32.4333 13.7 30.1C13.7 27.7667 14.1333 25.7 15 23.9C15.8667 22.1 17.1167 20.7 18.75 19.7C20.3833 18.6833 22.3 18.175 24.5 18.175C26.2333 18.175 27.7833 18.4917 29.15 19.125C30.5167 19.7583 31.6333 20.6667 32.5 21.85L29.15 24.85C28.55 24.05 27.8333 23.4417 27 23.025C26.1667 22.6083 25.2667 22.4 24.3 22.4C23.0333 22.4 21.9167 22.7083 20.95 23.325C19.9833 23.925 19.2333 24.7833 18.7 25.9C18.1667 27.0167 17.9 28.4 17.9 30.05C17.9 31.7 18.1667 33.0917 18.7 34.225C19.2333 35.3417 19.9833 36.2083 20.95 36.825C21.9167 37.425 23.0333 37.725 24.3 37.725C25.2667 37.725 26.1667 37.5167 27 37.1C27.8333 36.6833 28.55 36.075 29.15 35.275L32.5 38.275C31.6333 39.4583 30.5167 40.375 29.15 41.025C27.7833 41.675 26.2333 42 24.5 42Z" fill="#0EA5E9"/>

  <!-- "P" letter -->
  <path d="M36 41.5V18.5H45.5C47.3 18.5 48.8333 18.8333 50.1 19.5C51.3667 20.15 52.3333 21.0667 53 22.25C53.6667 23.4167 54 24.7833 54 26.35C54 27.9167 53.6667 29.2917 53 30.475C52.3333 31.6417 51.3667 32.55 50.1 33.2C48.8333 33.85 47.3 34.175 45.5 34.175H40.1V41.5H36ZM40.1 30.5H45.1C46.5 30.5 47.5833 30.1417 48.35 29.425C49.1167 28.7083 49.5 27.6833 49.5 26.35C49.5 25.0167 49.1167 24 48.35 23.3C47.5833 22.5833 46.5 22.225 45.1 22.225H40.1V30.5Z" fill="#EC4899"/>

  <!-- Linear gradient definition -->
  <defs>
    <linearGradient id="paint0_linear" x1="0" y1="0" x2="64" y2="64" gradientUnits="userSpaceOnUse">
      <stop stop-color="#0EA5E9" />
      <stop offset="0.5" stop-color="#8B5CF6" />
      <stop offset="1" stop-color="#EC4899" />
    </linearGradient>
  </defs>
</svg>
