<?xml version="1.0" encoding="UTF-8" standalone="no"?>
<svg width="1200" height="630" viewBox="0 0 1200 630" fill="none" xmlns="http://www.w3.org/2000/svg">
  <rect width="1200" height="630" fill="#0EA5E9"/>
  <rect x="50" y="50" width="1100" height="530" rx="20" fill="white"/>
  
  <!-- Logo -->
  <g transform="translate(100, 100) scale(0.5)">
    <rect width="512" height="512" rx="100" fill="url(#gradient)" />
    <path d="M156 156H356V356H156V156Z" fill="white" />
    <path d="M206 206H306V306H206V206Z" fill="url(#inner-gradient)" />
    <path d="M256 106C256 92.7452 266.745 82 280 82H356C369.255 82 380 92.7452 380 106V156H256V106Z" fill="#4F46E5" />
    <path d="M156 106C156 92.7452 166.745 82 180 82H256V156H156V106Z" fill="#0EA5E9" />
    <path d="M156 356H256V430C256 443.255 245.255 454 232 454H180C166.745 454 156 443.255 156 430V356Z" fill="#10B981" />
    <path d="M256 356H380V430C380 443.255 369.255 454 356 454H280C266.745 454 256 443.255 256 430V356Z" fill="#8B5CF6" />
  </g>
  
  <!-- Text -->
  <text x="400" y="200" font-family="Ubuntu, sans-serif" font-size="80" font-weight="bold" fill="#0F172A">CityPulse</text>
  <text x="400" y="280" font-family="Ubuntu, sans-serif" font-size="60" font-weight="bold" fill="#64748B">South Africa</text>
  
  <!-- Tagline -->
  <text x="400" y="380" font-family="Ubuntu, sans-serif" font-size="40" fill="#334155">Discover local deals and events</text>
  <text x="400" y="430" font-family="Ubuntu, sans-serif" font-size="40" fill="#334155">across South Africa</text>
  
  <!-- Features -->
  <g transform="translate(400, 500)">
    <circle cx="15" cy="15" r="15" fill="#10B981"/>
    <text x="50" y="25" font-family="Ubuntu, sans-serif" font-size="30" fill="#334155">Local Deals</text>
    
    <circle cx="250" cy="15" r="15" fill="#8B5CF6"/>
    <text x="285" y="25" font-family="Ubuntu, sans-serif" font-size="30" fill="#334155">Events</text>
    
    <circle cx="450" cy="15" r="15" fill="#4F46E5"/>
    <text x="485" y="25" font-family="Ubuntu, sans-serif" font-size="30" fill="#334155">Merchants</text>
  </g>
  
  <defs>
    <linearGradient id="gradient" x1="0" y1="0" x2="512" y2="512" gradientUnits="userSpaceOnUse">
      <stop stop-color="#0EA5E9" />
      <stop offset="0.5" stop-color="#10B981" />
      <stop offset="1" stop-color="#8B5CF6" />
    </linearGradient>
    <linearGradient id="inner-gradient" x1="206" y1="206" x2="306" y2="306" gradientUnits="userSpaceOnUse">
      <stop stop-color="#4F46E5" />
      <stop offset="1" stop-color="#8B5CF6" />
    </linearGradient>
  </defs>
</svg>
